<?xml version="1.0" standalone="no"?>
<!DOCTYPE svg PUBLIC "-//W3C//DTD SVG 20010904//EN"
 "http://www.w3.org/TR/2001/REC-SVG-20010904/DTD/svg10.dtd">
<svg version="1.0" xmlns="http://www.w3.org/2000/svg"
 width="200.000000pt" height="200.000000pt" viewBox="0 0 200.000000 200.000000"
 preserveAspectRatio="xMidYMid meet">
<metadata>
Created by potrace 1.16, written by Peter Selinger 2001-2019
</metadata>
<g transform="translate(0.000000,200.000000) scale(0.100000,-0.100000)"
fill="#000000" stroke="none">
<path d="M80 1182 c-10 -4 -17 -23 -18 -47 -3 -41 25 -108 73 -170 17 -23 25
-51 30 -107 8 -85 11 -93 42 -102 35 -11 59 25 71 107 8 54 16 75 32 86 11 7
20 20 20 27 0 7 9 28 20 46 19 32 20 32 21 8 0 -14 2 -36 4 -50 2 -14 6 -63 9
-109 3 -55 11 -90 20 -99 11 -11 40 -15 111 -15 84 0 99 3 117 21 l21 20 28
-20 c24 -18 33 -20 54 -10 14 7 25 20 25 31 0 26 21 71 33 71 5 0 30 -22 56
-50 53 -56 90 -65 120 -29 l17 21 48 -33 c79 -53 147 -37 189 44 15 30 22 35
33 26 8 -6 14 -17 14 -23 0 -17 89 -101 125 -118 37 -18 133 -13 156 8 8 8 21
14 27 14 7 0 12 4 12 8 0 5 9 19 20 32 11 13 20 29 20 37 0 7 5 13 10 13 6 0
10 -7 10 -15 0 -22 37 -55 61 -55 12 0 37 16 55 35 37 39 54 38 91 -8 17 -22
44 -26 77 -14 19 7 20 35 5 74 -19 45 -18 66 2 106 29 56 25 104 -14 162 -38
59 -61 71 -147 80 -90 8 -122 -3 -134 -46 -14 -49 -25 -51 -57 -14 -39 44 -87
65 -147 65 -88 0 -147 -37 -183 -115 l-18 -40 5 50 c5 42 2 55 -16 78 -22 28
-72 38 -86 16 -4 -6 -8 -67 -10 -136 -2 -68 -6 -128 -9 -134 -11 -17 -54 -10
-66 12 -10 20 -20 21 -63 3 -13 -5 -17 -4 -12 4 3 6 7 52 7 101 1 122 -30 175
-90 156 -21 -6 -31 -33 -31 -86 0 -42 -8 -53 -27 -38 -7 6 -13 8 -13 4 0 -5
-19 18 -42 51 -23 32 -47 62 -52 66 -21 15 -55 8 -66 -13 -11 -20 -12 -20 -31
-3 -16 14 -38 17 -130 17 -82 -1 -114 -5 -121 -15 -7 -10 -10 -10 -19 5 -6 10
-22 17 -38 17 -32 0 -46 -14 -86 -83 l-28 -48 -29 53 c-40 73 -64 89 -108 70z
m579 -217 c2 -78 -6 -103 -24 -75 -3 6 -15 10 -26 10 -20 0 -20 0 0 26 25 31
27 76 6 94 -8 7 -15 16 -15 21 0 8 40 17 51 12 4 -1 7 -41 8 -88z"/>
<path d="M1 184 c0 -11 3 -14 6 -6 3 7 2 16 -1 19 -3 4 -6 -2 -5 -13z"/>
</g>
</svg>
